<svg width="203" height="52" viewBox="0 0 203 52" fill="none" xmlns="http://www.w3.org/2000/svg">
<path d="M65.5043 16.3816H68.4082L69.868 18.2597L71.3042 19.9326L74.0108 23.3257H70.8228L68.9605 21.0373L68.0057 19.6801L65.5043 16.3816ZM74.2554 13.9197C74.2554 15.682 73.9213 17.1813 73.2532 18.4175C72.5904 19.6538 71.6856 20.598 70.5387 21.2504C69.3972 21.8974 68.1136 22.2209 66.6879 22.2209C65.2518 22.2209 63.9629 21.8948 62.8214 21.2425C61.6798 20.5901 60.7776 19.6459 60.1148 18.4096C59.4519 17.1734 59.1205 15.6767 59.1205 13.9197C59.1205 12.1573 59.4519 10.6581 60.1148 9.42181C60.7776 8.18556 61.6798 7.2439 62.8214 6.59684C63.9629 5.94452 65.2518 5.61836 66.6879 5.61836C68.1136 5.61836 69.3972 5.94452 70.5387 6.59684C71.6856 7.2439 72.5904 8.18556 73.2532 9.42181C73.9213 10.6581 74.2554 12.1573 74.2554 13.9197ZM70.7912 13.9197C70.7912 12.7781 70.6203 11.8154 70.2783 11.0316C69.9417 10.2477 69.4656 9.65328 68.8501 9.24821C68.2346 8.84314 67.5139 8.6406 66.6879 8.6406C65.862 8.6406 65.1413 8.84314 64.5258 9.24821C63.9103 9.65328 63.4316 10.2477 63.0897 11.0316C62.753 11.8154 62.5846 12.7781 62.5846 13.9197C62.5846 15.0612 62.753 16.0239 63.0897 16.8077C63.4316 17.5916 63.9103 18.186 64.5258 18.5911C65.1413 18.9962 65.862 19.1987 66.6879 19.1987C67.5139 19.1987 68.2346 18.9962 68.8501 18.5911C69.4656 18.186 69.9417 17.5916 70.2783 16.8077C70.6203 16.0239 70.7912 15.0612 70.7912 13.9197ZM84.4959 16.8393V9.87948H87.8574V22H84.63V19.7984H84.5038C84.2302 20.5086 83.7752 21.0794 83.1386 21.5108C82.5074 21.9421 81.7367 22.1578 80.8266 22.1578C80.0164 22.1578 79.3036 21.9737 78.6881 21.6055C78.0726 21.2372 77.5913 20.7138 77.2441 20.0352C76.9021 19.3565 76.7285 18.5438 76.7233 17.5968V9.87948H80.0848V16.9971C80.0901 17.7126 80.2821 18.2781 80.6609 18.6937C81.0396 19.1093 81.5473 19.3171 82.1838 19.3171C82.5889 19.3171 82.9677 19.225 83.3201 19.0409C83.6726 18.8515 83.9567 18.5727 84.1723 18.2044C84.3933 17.8362 84.5011 17.3812 84.4959 16.8393ZM96.0699 22.2367C94.8232 22.2367 93.75 21.9842 92.8504 21.4792C91.9561 20.9689 91.267 20.2482 90.783 19.3171C90.299 18.3807 90.057 17.2733 90.057 15.995C90.057 14.7482 90.299 13.654 90.783 12.7123C91.267 11.7707 91.9482 11.0368 92.8268 10.5108C93.7105 9.9847 94.7469 9.72167 95.9358 9.72167C96.7354 9.72167 97.4798 9.85055 98.1689 10.1083C98.8633 10.3608 99.4683 10.7422 99.9839 11.2525C100.505 11.7628 100.91 12.4046 101.199 13.1779C101.488 13.946 101.633 14.8455 101.633 15.8766V16.7999H91.3985V14.7166H98.4688C98.4688 14.2327 98.3636 13.8039 98.1532 13.4304C97.9427 13.0569 97.6508 12.7649 97.2773 12.5545C96.909 12.3388 96.4803 12.231 95.991 12.231C95.4807 12.231 95.0283 12.3494 94.6338 12.5861C94.2445 12.8176 93.9394 13.1306 93.7184 13.5251C93.4975 13.9144 93.3844 14.3484 93.3791 14.8271V16.8077C93.3791 17.4075 93.4896 17.9256 93.7105 18.3623C93.9367 18.7989 94.255 19.1356 94.6653 19.3723C95.0757 19.609 95.5623 19.7274 96.1252 19.7274C96.4987 19.7274 96.8406 19.6748 97.151 19.5696C97.4614 19.4644 97.727 19.3066 97.948 19.0961C98.1689 18.8857 98.3373 18.6279 98.453 18.3228L101.562 18.528C101.404 19.275 101.081 19.9273 100.591 20.4849C100.107 21.0373 99.4815 21.4687 98.7134 21.7791C97.9506 22.0842 97.0695 22.2367 96.0699 22.2367ZM109.35 22.2367C108.104 22.2367 107.03 21.9842 106.131 21.4792C105.237 20.9689 104.547 20.2482 104.063 19.3171C103.58 18.3807 103.338 17.2733 103.338 15.995C103.338 14.7482 103.58 13.654 104.063 12.7123C104.547 11.7707 105.229 11.0368 106.107 10.5108C106.991 9.9847 108.027 9.72167 109.216 9.72167C110.016 9.72167 110.76 9.85055 111.449 10.1083C112.144 10.3608 112.749 10.7422 113.264 11.2525C113.785 11.7628 114.19 12.4046 114.48 13.1779C114.769 13.946 114.914 14.8455 114.914 15.8766V16.7999H104.679V14.7166H111.749C111.749 14.2327 111.644 13.8039 111.434 13.4304C111.223 13.0569 110.931 12.7649 110.558 12.5545C110.189 12.3388 109.761 12.231 109.272 12.231C108.761 12.231 108.309 12.3494 107.914 12.5861C107.525 12.8176 107.22 13.1306 106.999 13.5251C106.778 13.9144 106.665 14.3484 106.66 14.8271V16.8077C106.66 17.4075 106.77 17.9256 106.991 18.3623C107.217 18.7989 107.536 19.1356 107.946 19.3723C108.356 19.609 108.843 19.7274 109.406 19.7274C109.779 19.7274 110.121 19.6748 110.431 19.5696C110.742 19.4644 111.008 19.3066 111.228 19.0961C111.449 18.8857 111.618 18.6279 111.733 18.3228L114.843 18.528C114.685 19.275 114.361 19.9273 113.872 20.4849C113.388 21.0373 112.762 21.4687 111.994 21.7791C111.231 22.0842 110.35 22.2367 109.35 22.2367ZM120.469 14.9928V22H117.107V9.87948H120.311V12.0179H120.453C120.721 11.313 121.171 10.7554 121.802 10.3451C122.434 9.92946 123.199 9.72167 124.099 9.72167C124.94 9.72167 125.674 9.90579 126.3 10.274C126.926 10.6423 127.413 11.1683 127.76 11.8522C128.107 12.5308 128.281 13.341 128.281 14.2826V22H124.919V14.8824C124.925 14.1406 124.735 13.5619 124.351 13.1463C123.967 12.7255 123.438 12.5151 122.765 12.5151C122.313 12.5151 121.913 12.6124 121.566 12.807C121.224 13.0017 120.955 13.2857 120.761 13.6593C120.571 14.0275 120.474 14.472 120.469 14.9928ZM141.015 13.3357L137.937 13.5251C137.885 13.2621 137.772 13.0253 137.598 12.8149C137.424 12.5992 137.196 12.4283 136.912 12.302C136.633 12.1705 136.299 12.1047 135.909 12.1047C135.389 12.1047 134.949 12.2152 134.592 12.4362C134.234 12.6518 134.055 12.9412 134.055 13.3042C134.055 13.5935 134.171 13.8381 134.402 14.038C134.634 14.2379 135.031 14.3984 135.594 14.5194L137.787 14.9613C138.966 15.2033 139.844 15.5925 140.423 16.1291C141.002 16.6657 141.291 17.3706 141.291 18.2439C141.291 19.0383 141.057 19.7353 140.589 20.335C140.126 20.9347 139.489 21.4029 138.679 21.7396C137.874 22.071 136.946 22.2367 135.894 22.2367C134.289 22.2367 133.011 21.9027 132.059 21.2346C131.112 20.5612 130.557 19.6459 130.394 18.4885L133.7 18.3149C133.8 18.8042 134.042 19.1777 134.426 19.4354C134.81 19.6879 135.302 19.8142 135.902 19.8142C136.491 19.8142 136.964 19.7011 137.322 19.4749C137.685 19.2434 137.869 18.9462 137.874 18.5832C137.869 18.2781 137.74 18.0282 137.488 17.8336C137.235 17.6337 136.846 17.4811 136.32 17.3759L134.221 16.9577C133.037 16.7209 132.156 16.3106 131.577 15.7267C131.004 15.1428 130.717 14.3984 130.717 13.4935C130.717 12.715 130.928 12.0442 131.348 11.4813C131.775 10.9185 132.372 10.4845 133.14 10.1793C133.913 9.87422 134.818 9.72167 135.854 9.72167C137.385 9.72167 138.59 10.0452 139.468 10.6923C140.352 11.3393 140.868 12.2205 141.015 13.3357Z" fill="black"/>
<path d="M70.5624 31.8393H72.5194V42.5395C72.5194 43.6442 72.259 44.6306 71.7382 45.4986C71.2226 46.3613 70.494 47.0426 69.5524 47.5423C68.6107 48.0368 67.506 48.2841 66.2382 48.2841C64.9703 48.2841 63.8656 48.0368 62.924 47.5423C61.9823 47.0426 61.2511 46.3613 60.7303 45.4986C60.2147 44.6306 59.957 43.6442 59.957 42.5395V31.8393H61.9139V42.3816C61.9139 43.1707 62.0875 43.873 62.4347 44.4885C62.7819 45.0988 63.2764 45.5801 63.9182 45.9326C64.5653 46.2798 65.3386 46.4534 66.2382 46.4534C67.1377 46.4534 67.911 46.2798 68.5581 45.9326C69.2052 45.5801 69.6997 45.0988 70.0416 44.4885C70.3888 43.873 70.5624 43.1707 70.5624 42.3816V31.8393ZM78.0371 40.7088V48H76.1749V35.8795H77.974V37.7733H78.1318C78.4159 37.1578 78.8473 36.6633 79.4259 36.2898C80.0046 35.911 80.7516 35.7217 81.667 35.7217C82.4876 35.7217 83.2057 35.89 83.8212 36.2267C84.4367 36.5581 84.9154 37.0631 85.2574 37.7418C85.5993 38.4151 85.7703 39.2673 85.7703 40.2984V48H83.908V40.4247C83.908 39.4725 83.6607 38.7308 83.1662 38.1994C82.6717 37.6628 81.9931 37.3945 81.1304 37.3945C80.5359 37.3945 80.0046 37.5234 79.5364 37.7812C79.0735 38.039 78.7079 38.4151 78.4396 38.9096C78.1713 39.4041 78.0371 40.0038 78.0371 40.7088ZM91.0355 31.8393V48H89.1732V31.8393H91.0355ZM94.4464 48V35.8795H96.3086V48H94.4464ZM95.3933 33.8594C95.0303 33.8594 94.7173 33.7358 94.4543 33.4885C94.1965 33.2413 94.0676 32.944 94.0676 32.5968C94.0676 32.2496 94.1965 31.9524 94.4543 31.7052C94.7173 31.4579 95.0303 31.3343 95.3933 31.3343C95.7563 31.3343 96.0667 31.4579 96.3244 31.7052C96.5875 31.9524 96.719 32.2496 96.719 32.5968C96.719 32.944 96.5875 33.2413 96.3244 33.4885C96.0667 33.7358 95.7563 33.8594 95.3933 33.8594ZM99.7195 48V35.8795H101.519V37.7733H101.676C101.929 37.1263 102.337 36.6239 102.9 36.2661C103.462 35.9032 104.138 35.7217 104.928 35.7217C105.727 35.7217 106.393 35.9032 106.924 36.2661C107.461 36.6239 107.879 37.1263 108.179 37.7733H108.305C108.615 37.1473 109.081 36.6502 109.702 36.2819C110.322 35.9084 111.067 35.7217 111.935 35.7217C113.018 35.7217 113.905 36.061 114.594 36.7396C115.283 37.413 115.628 38.4625 115.628 39.8881V48H113.765V39.8881C113.765 38.9938 113.521 38.3546 113.032 37.9706C112.542 37.5866 111.966 37.3945 111.303 37.3945C110.451 37.3945 109.791 37.6523 109.323 38.1679C108.855 38.6781 108.621 39.3252 108.621 40.109V48H106.727V39.6987C106.727 39.0096 106.503 38.4546 106.056 38.0337C105.609 37.6076 105.033 37.3945 104.328 37.3945C103.844 37.3945 103.391 37.5234 102.971 37.7812C102.555 38.039 102.218 38.3967 101.961 38.8544C101.708 39.3068 101.582 39.8302 101.582 40.4247V48H99.7195ZM119.033 48V35.8795H120.895V48H119.033ZM119.98 33.8594C119.617 33.8594 119.304 33.7358 119.041 33.4885C118.783 33.2413 118.654 32.944 118.654 32.5968C118.654 32.2496 118.783 31.9524 119.041 31.7052C119.304 31.4579 119.617 31.3343 119.98 31.3343C120.343 31.3343 120.653 31.4579 120.911 31.7052C121.174 31.9524 121.305 32.2496 121.305 32.5968C121.305 32.944 121.174 33.2413 120.911 33.4885C120.653 33.7358 120.343 33.8594 119.98 33.8594ZM129.577 35.8795V37.4577H123.296V35.8795H129.577ZM125.126 32.9756H126.989V44.528C126.989 45.054 127.065 45.4486 127.218 45.7116C127.375 45.9694 127.575 46.143 127.817 46.2324C128.065 46.3166 128.325 46.3587 128.598 46.3587C128.804 46.3587 128.972 46.3482 129.103 46.3271C129.235 46.3008 129.34 46.2798 129.419 46.264L129.798 47.9369C129.672 47.9842 129.495 48.0316 129.269 48.0789C129.043 48.1315 128.756 48.1578 128.409 48.1578C127.883 48.1578 127.367 48.0447 126.862 47.8185C126.363 47.5923 125.947 47.2477 125.616 46.7848C125.29 46.3219 125.126 45.7379 125.126 45.033V32.9756ZM137.33 48.2525C136.162 48.2525 135.155 47.9947 134.308 47.4792C133.466 46.9584 132.816 46.2324 132.358 45.3013C131.906 44.3649 131.68 43.2759 131.68 42.0344C131.68 40.7929 131.906 39.6987 132.358 38.7518C132.816 37.7996 133.453 37.0579 134.268 36.5265C135.089 35.99 136.046 35.7217 137.14 35.7217C137.772 35.7217 138.395 35.8269 139.011 36.0373C139.626 36.2477 140.186 36.5897 140.691 37.0631C141.196 37.5313 141.599 38.1521 141.899 38.9254C142.199 39.6987 142.348 40.6509 142.348 41.7819V42.571H133.006V40.9613H140.455C140.455 40.2774 140.318 39.6671 140.044 39.1306C139.776 38.594 139.392 38.1705 138.892 37.8601C138.398 37.5497 137.814 37.3945 137.14 37.3945C136.399 37.3945 135.757 37.5787 135.215 37.9469C134.678 38.3099 134.265 38.7834 133.976 39.3673C133.687 39.9512 133.542 40.5772 133.542 41.2453V42.3185C133.542 43.2339 133.7 44.0098 134.016 44.6463C134.336 45.2776 134.781 45.759 135.349 46.0904C135.917 46.4165 136.578 46.5796 137.33 46.5796C137.819 46.5796 138.261 46.5112 138.655 46.3745C139.055 46.2324 139.4 46.022 139.689 45.7432C139.979 45.4591 140.202 45.1066 140.36 44.6858L142.159 45.1908C141.97 45.8011 141.651 46.3376 141.204 46.8006C140.757 47.2582 140.205 47.616 139.547 47.8737C138.89 48.1263 138.15 48.2525 137.33 48.2525ZM149.758 48.2525C148.748 48.2525 147.856 47.9974 147.083 47.4871C146.31 46.9715 145.705 46.2456 145.268 45.3092C144.831 44.3675 144.613 43.2549 144.613 41.9713C144.613 40.6982 144.831 39.5935 145.268 38.6571C145.705 37.7207 146.312 36.9974 147.091 36.4871C147.869 35.9768 148.769 35.7217 149.79 35.7217C150.579 35.7217 151.202 35.8532 151.66 36.1162C152.123 36.374 152.475 36.6686 152.717 37C152.964 37.3262 153.156 37.5945 153.293 37.8049H153.451V31.8393H155.313V48H153.514V46.1377H153.293C153.156 46.3587 152.962 46.6375 152.709 46.9742C152.457 47.3056 152.096 47.6028 151.628 47.8659C151.16 48.1236 150.537 48.2525 149.758 48.2525ZM150.011 46.5796C150.758 46.5796 151.389 46.385 151.904 45.9957C152.42 45.6011 152.812 45.0567 153.08 44.3623C153.348 43.6626 153.483 42.8551 153.483 41.9397C153.483 41.0349 153.351 40.2432 153.088 39.5646C152.825 38.8807 152.436 38.3494 151.92 37.9706C151.405 37.5866 150.768 37.3945 150.011 37.3945C149.221 37.3945 148.564 37.5971 148.038 38.0022C147.517 38.402 147.125 38.9464 146.862 39.6356C146.604 40.3195 146.475 41.0875 146.475 41.9397C146.475 42.8025 146.607 43.5863 146.87 44.2912C147.138 44.9909 147.533 45.5485 148.054 45.9641C148.58 46.3745 149.232 46.5796 150.011 46.5796Z" fill="black"/>
<rect y="1" width="46.9528" height="46.9528" rx="3.30137" fill="#0762C8"/>
<path d="M18.6535 41.9727C17.6028 41.9727 16.5362 41.718 15.4536 41.2085C14.4029 40.6672 13.4159 39.8872 12.4925 38.8683H12.3015L11.7284 41.3996H6.23596V7.91983H13.2567V16.1345L13.0656 19.7643C13.989 18.9365 14.992 18.2997 16.0745 17.8539C17.1571 17.3763 18.2396 17.1375 19.3222 17.1375C21.2326 17.1375 22.8883 17.631 24.2892 18.6181C25.6902 19.6051 26.7568 21.0061 27.4891 22.8209C28.2533 24.604 28.6354 26.7054 28.6354 29.1252C28.6354 31.8316 28.1578 34.156 27.2026 36.0982C26.2474 38.0086 25.0056 39.4732 23.4773 40.4921C21.9808 41.4792 20.3729 41.9727 18.6535 41.9727ZM17.0297 36.2415C18.2396 36.2415 19.2744 35.6843 20.1341 34.5699C20.9938 33.4555 21.4236 31.6884 21.4236 29.2685C21.4236 25.002 20.0545 22.8687 17.3163 22.8687C15.9153 22.8687 14.5621 23.5851 13.2567 25.0179V34.7132C13.8935 35.2863 14.5303 35.6843 15.1671 35.9072C15.8039 36.13 16.4248 36.2415 17.0297 36.2415Z" fill="white"/>
<path d="M33.614 41.3996V17.7106H40.6347V41.3996H33.614ZM37.1005 14.2241C35.9224 14.2241 34.9672 13.8898 34.2349 13.2212C33.5025 12.5525 33.1364 11.661 33.1364 10.5466C33.1364 9.43223 33.5025 8.54071 34.2349 7.87207C34.9672 7.20343 35.9224 6.86911 37.1005 6.86911C38.2785 6.86911 39.2337 7.20343 39.9661 7.87207C40.6984 8.54071 41.0645 9.43223 41.0645 10.5466C41.0645 11.661 40.6984 12.5525 39.9661 13.2212C39.2337 13.8898 38.2785 14.2241 37.1005 14.2241Z" fill="white"/>
</svg>
